<svg xmlns="http://www.w3.org/2000/svg" viewBox="0 0 940 250"><path d="M206.0 246.1 C203.6 241.3 201.9 240.7 194.9 242.0 C191.7 242.7 184.0 242.9 176.0 242.5 C168.6 242.2 153.1 241.7 141.5 241.5 C102.5 240.7 76.8 234.7 61.0 222.8 C44.3 210.3 32.0 187.0 32.0 167.9 C32.0 165.8 31.7 164.0 31.4 164.0 C29.0 164.0 10.0 159.5 7.9 158.5 C3.6 156.3 3.1 154.9 1.3 141.1 C-0.3 128.7 -0.3 127.1 1.3 114.1 C2.2 106.5 3.2 99.6 3.6 98.7 C4.3 96.8 12.7 93.5 21.9 91.4 C25.6 90.6 29.5 89.7 30.7 89.5 C32.7 89.0 33.0 88.3 33.0 84.7 C33.0 59.5 51.5 34.1 78.8 21.9 C86.2 18.5 98.9 15.0 103.4 15.0 C105.1 15.0 110.0 14.3 114.4 13.5 C121.3 12.2 128.1 11.7 137.0 12.1 C138.4 12.1 149.4 11.7 161.5 11.1 C175.6 10.5 187.1 10.4 193.5 11.0 C204.5 12.1 204.1 12.3 207.9 5.3 C211.7 -1.6 213.1 -1.5 212.4 5.8 L211.7 11.8 L217.1 12.4 C226.8 13.5 252.3 15.0 262.6 15.0 C269.8 15.0 273.2 15.4 274.6 16.5 C275.9 17.5 279.1 17.9 285.0 18.0 C289.7 18.0 298.0 18.7 303.5 19.5 L313.5 21.0 L315.3 18.5 C317.8 15.2 318.8 15.3 319.2 19.2 L319.5 22.5 L334.5 23.7 C342.8 24.3 352.8 25.6 356.8 26.4 C360.8 27.3 368.3 28.0 373.3 28.0 C378.4 28.0 385.9 28.6 390.0 29.4 C401.2 31.5 413.7 32.3 414.5 31.1 C415.5 29.4 418.8 29.8 419.9 31.9 C420.7 33.4 422.6 33.8 430.2 34.4 C435.3 34.7 444.2 35.5 450.0 36.0 C455.8 36.5 465.3 37.2 471.2 37.6 L482.0 38.3 L482.0 33.9 C482.1 29.8 482.2 29.6 483.5 31.4 C484.3 32.5 485.0 34.6 485.0 36.1 C485.0 38.6 485.4 38.9 490.2 39.9 C499.7 41.8 520.8 42.4 523.5 41.0 C525.6 39.9 526.3 39.9 527.7 41.2 C529.0 42.3 534.5 43.3 547.0 44.5 C556.6 45.4 568.7 47.0 573.9 48.1 C579.1 49.3 584.4 50.0 585.8 49.7 C588.2 49.2 607.5 50.4 616.0 51.5 L620.6 52.1 L624.9 45.3 C630.2 37.1 629.7 37.7 630.8 38.4 C631.4 38.8 631.0 41.4 629.7 45.0 C628.5 48.7 628.1 51.4 628.6 52.0 C629.8 53.2 644.7 55.0 653.0 55.0 C659.6 55.0 679.2 56.9 699.5 59.5 C705.5 60.2 716.8 61.4 724.5 61.9 C738.2 63.0 746.7 64.1 770.0 68.0 C776.3 69.1 785.3 70.4 790.0 71.0 C794.7 71.6 800.0 72.6 801.9 73.2 C803.7 73.7 808.4 74.4 812.4 74.5 C822.7 74.9 841.1 78.7 851.5 82.5 C861.1 86.1 869.7 88.4 877.0 89.5 C893.0 91.9 907.2 96.6 914.0 101.9 C915.9 103.5 919.2 105.5 921.3 106.5 C925.9 108.6 932.1 115.6 935.1 121.8 C936.4 124.4 938.1 127.0 938.9 127.7 C940.3 128.8 940.0 129.4 936.8 132.4 C934.7 134.3 933.0 136.5 933.0 137.3 C933.0 140.6 924.8 147.8 913.8 154.2 C900.6 161.8 897.3 163.0 878.5 166.6 C870.8 168.0 858.6 171.1 851.5 173.5 C839.8 177.4 834.1 178.6 818.8 180.5 C814.3 181.1 814.0 181.3 814.0 184.1 C814.0 187.7 813.1 187.8 810.0 184.5 C808.5 182.9 807.0 182.2 806.0 182.6 C803.2 183.7 783.6 186.9 775.5 187.5 C771.1 187.9 763.9 189.0 759.5 190.0 C755.1 191.0 746.1 192.2 739.5 192.5 C732.9 192.9 726.9 193.7 726.3 194.2 C725.6 194.8 721.3 195.3 716.8 195.4 C712.2 195.6 703.0 196.0 696.2 196.5 C682.9 197.4 683.1 197.2 684.9 203.7 C686.7 209.8 682.7 208.4 680.0 202.1 C678.6 198.5 676.0 198.2 663.5 200.1 C653.5 201.5 632.1 203.8 613.8 205.4 C597.4 206.9 596.0 207.2 596.0 209.6 C596.0 211.5 593.4 211.4 592.6 209.5 C592.2 208.3 589.8 208.0 579.6 208.0 C567.5 208.0 563.7 208.3 540.2 211.6 C534.1 212.4 523.9 213.3 517.7 213.4 C507.2 213.7 485.3 215.8 469.5 218.0 C465.6 218.5 459.2 218.9 455.1 219.0 C448.9 219.0 447.2 219.4 445.4 221.1 C443.6 222.8 442.8 223.0 441.2 222.1 C438.9 220.9 418.8 221.5 413.1 222.9 C411.1 223.4 402.3 224.4 393.5 225.0 C372.1 226.6 372.0 226.6 372.0 230.1 C372.0 233.7 370.8 233.8 368.3 230.5 L366.5 228.1 L347.5 229.4 C337.1 230.2 327.1 231.2 325.5 231.8 C323.9 232.4 321.3 233.1 319.8 233.4 C316.4 234.2 316.3 236.1 319.0 241.5 L321.0 245.5 L318.2 242.3 C316.7 240.6 314.7 238.0 313.7 236.6 C311.7 233.6 308.6 233.3 297.3 235.0 C286.1 236.6 255.9 239.1 250.5 238.9 C244.4 238.6 210.9 240.9 209.7 241.7 C209.2 242.0 209.0 244.0 209.3 246.1 C210.0 251.1 208.6 251.1 206.0 246.1 Z" fill="#000" fill-rule="evenodd"/></svg>