<svg xmlns="http://www.w3.org/2000/svg" viewBox="0 0 866 866"><path d="M183.0 865.4 C120.1 864.3 78.7 860.7 60.0 854.5 C36.1 846.5 21.2 831.3 13.6 807.0 C12.1 802.4 10.5 798.1 10.0 797.5 C8.9 796.1 5.4 772.2 4.1 756.0 C1.3 723.0 0.8 684.7 0.6 484.0 C0.3 208.2 1.0 150.9 5.0 103.0 C7.3 76.8 14.3 48.5 21.2 38.7 C33.1 21.4 51.7 10.5 75.5 6.6 C88.2 4.6 108.3 3.1 139.6 2.0 C175.7 0.7 688.6 0.7 720.5 2.0 C795.9 5.1 815.7 9.4 834.2 26.9 C855.4 46.8 862.5 82.2 864.9 179.5 C866.1 230.9 866.2 616.7 865.0 678.0 C863.7 745.8 859.6 794.8 855.1 798.0 C854.7 798.3 853.6 801.4 852.6 805.0 C848.5 820.1 840.6 832.6 829.5 841.5 C812.0 855.6 788.0 860.8 725.0 864.1 C706.2 865.2 234.8 866.2 183.0 865.4 Z" fill="#000" fill-rule="evenodd"/></svg>