<svg xmlns="http://www.w3.org/2000/svg" viewBox="0 0 879 456"><path d="M4.0 439.6 C4.0 430.6 3.6 423.0 3.1 422.8 C2.5 422.6 1.9 342.7 1.5 226.0 C1.1 117.9 0.6 29.0 0.3 28.4 C0.1 27.8 0.0 25.1 0.2 22.4 L0.5 17.6 L6.0 15.3 C9.0 14.1 18.5 10.2 27.0 6.8 L42.5 0.5 L438.5 0.3 L834.5 0.0 L856.5 8.8 L878.5 17.6 L878.5 68.0 C878.3 254.1 877.7 371.3 876.9 401.5 C876.4 420.8 875.9 440.9 875.8 446.2 L875.6 456.0 L858.3 456.0 L841.0 456.0 L839.1 452.2 C837.5 449.2 837.2 446.2 837.1 436.0 C837.0 429.2 836.6 423.3 836.2 423.0 C835.8 422.7 835.5 420.5 835.4 418.0 C835.4 415.5 835.3 411.6 835.2 409.2 L835.0 405.0 L818.6 405.0 L802.1 405.0 L800.0 402.2 L797.8 399.5 L798.3 235.9 L798.8 72.2 L794.1 71.8 C790.2 71.5 94.1 71.5 84.1 71.9 L80.7 72.0 L81.4 235.3 C82.1 398.1 82.1 398.5 80.1 401.8 L78.0 405.0 L61.0 405.0 L44.0 405.0 L44.0 414.0 C44.0 419.3 43.6 423.0 43.0 423.0 C42.4 423.0 42.0 428.2 42.0 436.6 C42.0 448.7 41.8 450.5 39.9 453.1 L37.9 456.0 L20.9 456.0 L4.0 456.0 L4.0 439.6 Z" fill="#000" fill-rule="evenodd"/></svg>