<svg xmlns="http://www.w3.org/2000/svg" viewBox="0 0 873 829"><path d="M158.6 816.1 C158.2 815.5 158.1 814.6 158.5 814.0 C159.3 812.7 165.4 811.7 167.9 812.5 C170.4 813.3 170.7 816.0 168.2 816.0 C167.3 816.0 164.9 816.3 162.9 816.6 C160.7 817.0 159.0 816.8 158.6 816.1 Z M176.7 805.6 C176.4 804.8 177.0 803.0 178.1 801.6 C182.4 796.2 181.0 795.5 165.4 795.5 L151.3 795.5 L150.6 781.5 C150.2 773.8 149.4 767.4 148.9 767.2 C147.5 766.7 147.8 763.3 149.7 757.3 C151.5 751.7 151.1 733.6 148.0 679.5 C147.5 670.7 146.4 650.1 145.5 633.7 L143.9 603.9 L139.0 595.6 C129.6 579.7 115.3 572.5 90.0 571.2 L77.5 570.5 L77.2 564.2 L76.9 558.0 L40.5 558.0 C15.9 558.0 3.9 557.7 3.5 556.9 C3.1 556.3 2.6 552.3 2.3 547.9 C2.0 543.5 1.3 539.7 0.9 539.4 C-0.6 538.5 -0.2 502.4 1.4 498.7 C2.9 495.0 8.0 490.3 11.3 489.5 C12.5 489.2 14.3 487.6 15.2 486.0 C18.3 480.5 20.8 479.7 39.4 478.5 C54.2 477.5 57.3 477.0 62.0 474.8 C68.9 471.6 74.2 466.3 77.7 459.1 C81.4 451.7 82.2 437.2 79.4 428.3 C77.3 421.2 76.7 420.4 73.1 419.7 C71.1 419.3 70.0 418.3 69.6 416.5 C68.7 413.1 70.3 411.2 74.3 410.8 L77.5 410.5 L77.8 400.6 C78.0 392.0 78.3 390.7 79.9 390.3 C81.0 390.0 82.1 388.9 82.3 387.8 C82.9 385.8 83.6 385.8 178.7 386.1 L274.5 386.5 L274.3 383.0 C274.0 375.5 274.1 290.3 274.5 286.5 C274.7 284.3 275.1 263.1 275.5 239.5 C276.1 195.1 276.6 167.3 277.5 125.0 C277.8 111.5 278.2 83.8 278.5 63.5 C279.1 17.0 279.9 1.0 281.4 0.9 C285.7 0.5 502.6 1.2 503.2 1.6 C504.3 2.3 504.2 14.4 503.0 29.2 C502.5 36.0 501.3 52.1 500.5 65.0 C499.7 77.9 498.7 90.6 498.4 93.2 L497.8 97.9 L502.2 100.2 C508.3 103.4 513.3 105.3 531.5 111.6 C563.8 122.7 600.0 130.0 663.5 137.9 C745.2 148.2 790.6 161.2 826.2 184.5 C854.7 203.2 871.2 231.9 872.7 265.1 C875.5 328.7 832.7 372.0 753.5 385.6 C748.5 386.5 744.3 387.4 744.1 387.6 C743.9 387.8 757.8 388.0 775.1 388.0 C819.5 388.0 866.2 389.7 867.2 391.3 C867.6 391.9 868.0 420.9 868.0 455.7 C868.0 524.4 868.2 522.0 862.5 522.0 C859.7 522.0 859.0 523.6 859.0 530.5 L859.0 535.8 L853.9 536.5 C848.3 537.3 847.0 539.0 847.0 545.6 C847.0 549.5 844.6 551.0 838.2 551.0 C832.3 551.0 831.5 552.1 831.4 559.7 C831.4 563.8 830.5 569.3 829.1 573.5 C822.1 595.4 822.2 595.4 821.0 620.0 C820.4 632.9 819.3 655.0 818.5 669.0 C815.1 727.3 814.8 738.0 816.6 743.2 C818.4 748.7 818.1 759.9 815.9 771.8 C814.7 778.5 814.4 779.0 812.0 779.0 C810.6 779.1 803.9 779.2 797.0 779.3 L784.5 779.5 L784.2 773.2 C783.9 767.9 783.6 767.0 782.0 767.0 C779.2 767.0 778.7 749.6 781.3 742.5 C783.1 737.8 783.1 736.2 782.1 718.0 C781.4 707.3 780.5 689.0 780.0 677.5 C777.5 621.1 775.7 593.4 774.4 590.5 C773.7 588.9 772.2 584.1 771.1 580.0 C768.5 570.3 766.6 565.9 764.1 563.8 C762.5 562.4 762.0 560.8 762.0 557.1 L762.0 552.2 L756.2 551.8 C747.0 551.1 744.6 549.5 744.0 543.5 L743.5 538.5 L731.5 537.9 C716.5 537.2 715.4 536.7 714.5 529.5 L713.9 524.0 L672.2 524.0 C626.4 524.1 457.5 525.8 436.0 526.5 C428.6 526.7 409.1 527.2 392.8 527.5 L363.1 528.2 L362.8 542.9 L362.5 557.5 L347.5 558.1 C339.2 558.5 330.6 558.8 328.3 558.9 L324.1 559.0 L323.8 565.2 L323.5 571.5 L314.7 571.8 L305.8 572.1 L302.9 578.3 C301.3 581.7 299.6 585.2 299.1 586.0 C298.6 586.8 297.7 589.3 297.0 591.5 C296.3 593.7 292.0 603.1 287.5 612.5 C282.9 621.9 274.9 638.5 269.7 649.5 C264.5 660.5 257.9 674.5 255.0 680.5 C240.0 711.9 229.3 734.5 225.2 743.5 C219.3 756.4 214.0 766.3 212.3 767.3 C211.6 767.7 211.0 769.2 211.0 770.5 C211.0 771.8 210.6 773.2 210.0 773.5 C209.4 773.9 209.0 772.7 209.0 770.6 C209.0 767.7 208.6 767.0 207.0 767.0 C205.2 767.0 205.0 767.8 204.8 778.2 C204.5 788.7 204.4 789.5 202.5 789.5 C200.9 789.5 200.4 790.3 200.2 793.0 C200.1 794.9 199.6 798.8 199.2 801.5 L198.5 806.5 L187.9 806.8 C179.3 807.0 177.1 806.8 176.7 805.6 Z M210.3 781.0 C210.3 778.5 210.5 777.5 210.7 778.8 C210.9 780.0 210.9 782.0 210.7 783.2 C210.5 784.5 210.3 783.5 210.3 781.0 Z M202.0 752.8 C203.3 750.8 203.5 741.3 203.8 687.5 C204.3 589.4 202.2 561.2 200.0 637.0 C199.4 658.7 198.5 687.5 198.0 701.0 C196.5 737.3 196.5 750.3 197.9 752.8 C199.4 755.6 200.1 755.6 202.0 752.8 Z M243.1 670.2 C260.8 634.6 277.5 601.0 280.2 595.5 C282.9 590.0 286.4 583.2 288.0 580.5 C293.3 571.5 294.4 572.0 266.8 572.0 C253.4 572.0 241.9 572.4 241.2 572.9 C240.3 573.4 239.6 576.8 239.1 581.8 C238.7 586.3 238.2 590.2 237.9 590.5 C237.6 590.8 232.0 591.1 225.6 591.2 C212.0 591.4 211.0 591.8 209.9 598.6 C208.3 608.6 208.9 735.0 210.6 735.0 C210.8 735.0 225.4 705.9 243.1 670.2 Z" fill="#000" fill-rule="evenodd"/></svg>