<svg xmlns="http://www.w3.org/2000/svg" viewBox="0 0 885 563"><path d="M116.6 561.5 C115.8 560.6 114.8 557.7 114.4 554.9 C113.5 548.3 111.9 546.8 106.1 547.0 C103.6 547.2 100.8 547.2 99.9 547.1 C98.2 547.0 96.0 543.0 96.0 540.0 C96.0 538.9 95.2 537.6 94.2 537.1 C91.8 535.8 68.0 535.7 70.0 537.0 C72.3 538.5 67.3 538.2 62.5 536.6 C59.8 535.6 58.3 534.4 57.7 532.6 C56.7 529.6 55.5 529.3 54.1 531.8 C53.2 533.4 53.0 533.4 51.6 531.5 C50.3 529.7 48.9 529.5 34.9 529.4 C18.2 529.2 17.0 528.8 17.0 522.9 C17.0 521.4 16.5 520.0 15.9 519.8 C15.2 519.6 14.6 509.6 14.3 488.6 C13.9 468.2 13.3 457.5 12.6 456.8 C12.0 456.3 10.1 455.0 8.3 454.0 C2.8 450.7 2.0 448.4 0.8 433.3 C-0.2 418.9 1.0 395.9 3.1 390.2 C4.6 386.3 7.8 383.2 11.1 382.5 L14.0 381.8 L14.0 359.5 L14.0 337.1 L9.8 336.8 C4.2 336.4 3.3 334.1 4.6 323.3 L5.5 315.5 L9.7 315.2 L14.0 314.9 L14.0 235.0 L14.0 155.0 L11.5 154.4 C8.2 153.6 4.5 148.7 3.0 143.2 C-0.0 131.7 -0.0 97.2 3.0 85.8 C4.0 82.1 4.6 81.7 10.6 80.5 L13.8 79.9 L14.2 46.2 C14.6 18.0 14.9 11.9 16.3 8.7 C18.9 2.6 15.2 3.0 77.5 2.6 C97.4 2.5 102.8 2.2 104.0 1.1 C105.2 -0.1 120.8 -0.2 206.5 0.3 C262.0 0.6 433.1 1.1 586.5 1.5 C740.0 1.8 867.4 2.3 869.7 2.6 C875.6 3.3 877.0 6.0 878.1 18.4 C878.5 24.0 878.9 32.2 879.0 36.7 C879.0 44.4 879.1 44.9 881.2 45.2 C883.4 45.5 883.5 45.9 883.5 54.0 C883.5 61.9 883.3 62.6 881.2 63.5 L879.0 64.5 L879.0 108.0 C878.8 247.8 878.9 256.8 881.1 259.5 C882.5 261.4 884.1 278.1 883.5 285.4 C882.7 295.2 880.9 304.9 879.9 305.6 C879.4 305.9 879.0 323.1 879.0 343.9 C879.0 379.6 879.1 381.8 881.0 385.8 C883.7 391.3 883.7 396.0 881.0 396.7 C879.0 397.2 879.0 398.1 879.0 434.5 C879.0 471.3 879.0 471.9 881.1 472.5 C883.9 473.4 885.0 476.9 885.0 484.8 C885.0 492.2 884.5 493.4 881.2 494.4 C879.1 495.1 879.0 495.5 879.0 507.6 C879.0 518.0 878.8 520.0 877.5 520.0 C876.4 520.0 876.0 521.3 876.0 525.4 C876.0 530.2 875.6 531.1 873.2 533.0 C870.6 535.1 869.8 535.2 853.5 534.8 C844.1 534.5 835.1 534.7 833.5 535.2 C831.9 535.7 823.9 536.1 815.8 536.0 L801.2 536.0 L798.6 539.1 C797.2 540.8 796.0 542.8 796.0 543.5 C796.0 546.5 793.1 548.0 788.5 547.3 C780.8 546.3 779.5 547.1 778.2 554.1 C777.6 557.6 776.6 560.8 776.0 561.4 C775.3 562.1 768.2 562.6 757.5 562.8 L740.1 563.2 L737.6 560.7 C735.9 559.0 734.9 556.6 734.4 553.1 C734.0 550.3 733.2 547.9 732.6 547.8 C732.0 547.7 613.4 547.6 469.0 547.6 C220.7 547.5 206.4 547.4 204.0 545.8 C200.9 543.6 193.9 543.5 189.9 545.6 C187.6 546.7 184.2 547.1 176.7 546.9 C164.6 546.7 159.2 547.6 158.6 549.9 C158.4 550.8 157.8 553.4 157.5 555.8 C156.4 562.6 155.2 563.0 135.3 563.0 C121.2 563.0 117.9 562.7 116.6 561.5 Z" fill="#000" fill-rule="evenodd"/></svg>