<svg xmlns="http://www.w3.org/2000/svg" viewBox="0 0 331 948"><path d="M133.3 946.4 C120.6 943.7 119.0 941.8 119.0 930.1 L119.0 922.0 L114.2 921.9 C88.8 921.6 74.2 920.9 72.0 920.0 C69.0 918.7 67.7 916.6 65.9 910.0 C64.1 903.5 63.5 903.0 57.1 903.0 C51.2 903.0 25.1 901.1 21.2 900.4 C18.1 899.8 17.4 897.4 19.5 895.0 C21.3 893.0 21.0 892.6 17.7 892.9 C16.4 893.1 16.0 892.3 15.8 889.3 C15.5 881.8 15.2 878.4 14.3 871.8 C13.8 868.1 13.2 864.9 12.9 864.7 C12.7 864.5 10.1 862.9 7.2 861.1 C4.3 859.2 1.5 856.9 1.0 855.9 C-0.1 854.0 -0.4 830.9 0.6 827.3 C1.0 826.0 3.4 824.0 7.0 822.1 C12.6 819.1 12.8 818.8 13.4 814.2 C14.5 804.4 13.9 703.9 12.7 702.9 C12.0 702.4 9.4 700.6 6.7 699.0 C0.7 695.2 -0.0 693.3 0.0 679.7 C0.0 665.0 0.2 664.5 6.6 661.4 C9.5 660.0 12.4 658.3 12.9 657.6 C13.7 656.7 14.6 642.0 14.9 623.0 C15.0 621.6 14.6 613.3 14.1 604.5 C13.6 595.7 13.2 587.6 13.1 586.5 C13.0 585.1 11.1 583.4 7.1 581.2 C3.9 579.4 0.9 577.3 0.6 576.4 C-0.2 574.4 -0.2 549.6 0.6 547.6 C0.9 546.7 3.6 544.6 6.6 543.0 C9.5 541.3 12.2 539.4 12.6 538.9 C12.9 538.4 13.4 512.5 13.6 481.4 L14.0 425.0 L9.3 422.0 C-0.8 415.8 0.0 417.7 0.0 401.9 C-0.0 386.4 0.5 384.7 5.2 383.1 C12.7 380.5 12.9 380.1 13.5 363.5 C13.8 355.2 14.5 347.3 15.1 345.8 C16.0 343.7 15.8 342.1 14.5 338.5 C13.0 334.8 12.8 332.1 13.3 324.0 C13.6 318.5 13.6 311.8 13.3 309.0 C12.7 304.2 12.5 303.9 7.0 300.5 C3.8 298.6 0.9 296.3 0.6 295.4 C-0.2 293.3 0.0 270.1 0.9 267.0 C1.3 265.5 3.6 263.4 7.3 261.3 C12.6 258.2 13.0 257.6 13.1 254.2 C13.2 252.2 13.3 226.0 13.3 196.1 L13.5 141.7 L7.4 137.8 C0.1 133.3 0.0 133.0 0.0 118.0 C0.0 103.1 0.2 102.7 6.5 99.1 C9.4 97.4 12.1 95.7 12.4 95.2 C12.7 94.7 13.2 87.0 13.5 78.0 C13.9 69.0 14.6 60.8 15.1 59.8 C17.1 56.0 20.0 55.5 42.0 55.0 L63.4 54.5 L64.6 50.4 C66.6 43.4 68.8 40.2 72.2 39.1 C74.0 38.5 83.6 38.0 93.5 37.9 C103.4 37.9 113.0 37.6 114.8 37.3 L118.0 36.8 L118.0 24.8 C118.0 11.7 118.6 9.8 123.2 7.4 C141.5 -2.1 198.9 -1.0 209.6 9.1 C211.9 11.3 212.0 11.9 212.0 24.0 L212.0 36.7 L233.8 37.4 C245.7 37.8 256.6 38.5 258.0 39.1 C261.4 40.4 264.0 44.3 265.4 49.9 L266.6 54.5 L288.1 55.0 C310.5 55.5 312.8 56.0 315.2 60.3 C315.9 61.6 316.5 68.9 316.8 79.2 C317.2 93.8 317.5 96.0 318.9 96.5 C319.9 96.8 322.7 98.4 325.3 100.0 L330.0 103.0 L330.0 116.5 C330.0 133.2 329.5 134.4 320.7 139.0 L317.0 141.0 L317.2 199.7 L317.5 258.4 L322.8 261.5 C325.7 263.2 328.5 265.3 329.1 266.1 C330.3 268.0 330.3 293.7 329.0 296.0 C328.5 297.0 325.6 299.2 322.6 300.8 L317.2 303.9 L316.8 321.2 C316.5 332.6 315.9 339.4 315.1 341.1 C314.0 343.3 314.0 344.2 315.1 346.1 C316.0 347.7 316.6 353.6 316.8 363.6 L317.2 378.8 L322.1 381.5 C329.6 385.6 330.2 387.0 330.2 401.0 C330.1 415.3 329.3 417.4 322.2 421.4 L317.0 424.4 L317.0 482.1 L317.0 539.7 L321.0 541.5 C329.7 545.4 330.0 546.1 330.0 562.0 C330.0 577.8 330.1 577.6 321.8 581.9 L317.2 584.4 L316.8 601.4 C316.6 612.4 316.0 619.3 315.2 620.8 C314.3 622.4 314.2 623.5 315.0 624.9 C315.5 626.0 316.2 633.6 316.5 641.7 C316.7 649.8 316.9 656.8 317.0 657.3 C317.0 657.7 318.7 658.8 320.8 659.7 C322.8 660.7 325.7 662.3 327.2 663.3 L330.0 665.1 L330.0 679.4 C330.0 695.4 330.2 694.8 321.3 700.4 L317.0 703.0 L317.1 760.8 L317.1 818.5 L322.6 821.5 C325.7 823.2 328.6 825.2 329.1 826.1 C330.5 828.8 330.6 853.1 329.1 855.8 C328.5 857.0 325.5 859.4 322.5 861.1 L317.0 864.2 L317.0 869.5 C317.0 872.7 316.5 875.0 315.8 875.2 C315.1 875.5 314.6 879.2 314.4 886.0 C313.9 901.7 316.2 900.8 272.2 903.4 C266.2 903.7 265.4 904.4 264.4 910.5 C264.0 913.0 262.6 915.6 260.5 917.7 C257.4 920.8 256.8 921.0 249.8 921.0 C245.8 921.0 235.4 921.3 226.8 921.7 L211.0 922.3 L211.0 928.5 C211.0 941.6 209.6 943.1 195.1 946.4 C185.5 948.5 142.9 948.5 133.3 946.4 Z" fill="#000" fill-rule="evenodd"/></svg>