<svg xmlns="http://www.w3.org/2000/svg" viewBox="0 0 742 735"><path d="M333.9 734.6 C333.7 734.4 328.8 733.7 323.0 733.1 C317.2 732.6 309.1 731.3 305.0 730.5 C279.8 725.0 274.1 723.6 270.6 722.3 C268.5 721.6 263.8 720.2 260.2 719.4 C253.6 717.9 238.9 712.5 231.5 709.0 C229.3 707.9 224.1 705.6 220.0 703.9 C209.9 699.6 181.6 685.1 174.3 680.4 C173.1 679.6 171.3 679.0 170.3 679.0 C166.9 679.0 144.1 662.1 125.5 645.7 C62.6 590.5 20.9 516.8 6.1 434.5 C2.4 414.1 -0.2 379.0 0.7 361.0 C2.7 319.0 6.4 296.4 17.7 259.5 C36.7 197.1 71.9 141.5 120.6 96.9 C156.2 64.4 193.7 41.3 238.5 24.3 C280.9 8.3 317.4 1.2 361.7 0.2 C403.0 -0.6 433.9 3.4 473.8 14.6 C498.0 21.4 530.7 34.6 548.5 44.7 C552.9 47.2 557.9 50.0 559.5 50.8 C573.2 57.9 601.2 78.5 619.8 95.4 C714.9 181.1 759.4 313.8 734.9 438.5 C730.1 462.8 721.7 491.9 715.6 505.3 C714.3 508.2 712.9 511.6 712.5 513.0 C712.1 514.4 708.6 522.0 704.7 530.0 C681.4 578.1 646.9 621.6 605.6 655.0 C589.8 667.6 573.5 679.0 571.0 679.0 C569.4 679.0 550.5 688.6 547.5 691.0 C543.7 694.0 517.8 705.9 506.0 710.1 C503.0 711.2 499.0 712.7 497.3 713.6 C485.6 719.1 449.4 728.3 425.0 732.1 C420.9 732.7 415.1 733.6 412.1 734.1 C406.8 735.0 334.8 735.4 333.9 734.6 Z" fill="#000" fill-rule="evenodd"/></svg>