<svg xmlns="http://www.w3.org/2000/svg" viewBox="0 0 874 135"><path d="M3.4 133.4 C3.1 132.3 2.4 130.4 1.9 129.1 C0.6 125.8 0.7 6.9 2.0 3.5 L3.0 1.0 L47.7 1.0 C822.6 0.9 870.5 0.9 871.6 2.5 C873.5 5.0 874.2 30.6 873.8 80.5 C873.5 112.4 873.1 127.1 872.3 128.5 C871.7 129.6 870.9 131.3 870.6 132.2 C870.0 134.2 872.5 134.2 774.5 134.2 C744.2 134.1 711.2 134.2 701.0 134.2 C662.9 134.3 652.6 134.3 572.0 134.3 C526.6 134.3 480.5 134.3 469.5 134.3 C458.5 134.2 440.3 134.1 429.0 134.1 C406.9 134.0 298.6 134.0 280.5 134.1 C237.2 134.4 50.0 134.4 31.0 134.1 C18.1 134.0 6.7 134.2 5.8 134.5 C4.6 135.0 3.8 134.6 3.4 133.4 Z" fill="#000" fill-rule="evenodd"/></svg>